<svg width="50" height="50" viewBox="0 0 50 50" fill="none" xmlns="http://www.w3.org/2000/svg">
<rect x="13" y="13" width="23" height="23" fill="#D9D9D9"/>
<path d="M35.475 0H14.525C5.425 0 0 5.425 0 14.525V35.45C0 44.575 5.425 50 14.525 50H35.45C44.55 50 49.975 44.575 49.975 35.475V14.525C50 5.425 44.575 0 35.475 0ZM33.4 30.75C34.125 31.475 34.125 32.675 33.4 33.4C33.025 33.775 32.55 33.95 32.075 33.95C31.6 33.95 31.125 33.775 30.75 33.4L25 27.65L19.25 33.4C18.875 33.775 18.4 33.95 17.925 33.95C17.45 33.95 16.975 33.775 16.6 33.4C15.875 32.675 15.875 31.475 16.6 30.75L22.35 25L16.6 19.25C15.875 18.525 15.875 17.325 16.6 16.6C17.325 15.875 18.525 15.875 19.25 16.6L25 22.35L30.75 16.6C31.475 15.875 32.675 15.875 33.4 16.6C34.125 17.325 34.125 18.525 33.4 19.25L27.65 25L33.4 30.75Z" fill="black"/>
</svg>
